<svg xmlns="http://www.w3.org/2000/svg" viewBox="0 0 271.07 199.25"><defs><style>.cls-1{fill:#e86025;}</style></defs><title>Readr_Logo_Prt_2</title><g id="Layer_2" data-name="Layer 2"><g id="Layer_24" data-name="Layer 24"><path class="cls-1" d="M8.57,198.31H0v-44H8.57v9.89c2.26-7.73,6.5-10.83,12.25-10.83,3.11,0,6.41.85,7.63,1.7l-1.32,8a15.31,15.31,0,0,0-6.5-1.51c-8.48,0-12.06,9-12.06,20.73Z"/><path class="cls-1" d="M87.15,179.56H51.44c1,7.35,6.78,12,14.23,12,5.28,0,10.17-2.45,12.62-6.78,2.26.94,5,1.88,7.35,2.83-3.77,7.73-11.78,11.68-20.26,11.68-12.53,0-22.52-9.14-22.52-23.08s10-22.8,22.52-22.8,21.86,8.86,21.86,22.8C87.24,177.21,87.24,178.62,87.15,179.56Zm-8.39-6.69c-1-7.35-6.31-11.78-13.38-11.78-7.25,0-12.91,4.43-13.94,11.78Z"/><path class="cls-1" d="M142.74,191.53c-2.92,5-9.33,7.73-15.45,7.73-12.06,0-22.33-9-22.33-23s10.27-22.89,22.33-22.89c6.12,0,12.53,2.54,15.45,7.54v-6.59h8.48v44h-8.48ZM128,161.76c-7.91,0-14.32,5.65-14.32,14.41s6.41,14.7,14.32,14.7,14.6-5.37,14.6-14.7S135.11,161.76,128,161.76Z"/><path class="cls-1" d="M210,191.53c-2.92,5-9.33,7.73-15.45,7.73-12.06,0-22.24-9-22.24-23s10.08-22.89,22.14-22.89c6.5,0,12.63,2.54,15.55,7.54V142.38h8.57v55.93H210Zm-14.7-29.77c-7.91,0-14.23,5.65-14.23,14.41s6.31,14.7,14.23,14.7c7.73,0,14.6-5.37,14.6-14.7S202.38,161.76,195.32,161.76Z"/><path class="cls-1" d="M251.19,198.31h-8.57v-44h8.57v9.89c2.26-7.73,6.5-10.83,12.25-10.83,3.11,0,6.41.85,7.63,1.7l-1.32,8a15.31,15.31,0,0,0-6.5-1.51c-8.48,0-12.06,9-12.06,20.73Z"/></g><g id="Layer_26" data-name="Layer 26"><path class="cls-1" d="M176.39,74.74,144.05,56.06,115.43,72.49c-9.85,7.54-17.74.94-23.8-2.53l-8.28,4.78,46.52,26.85Z"/><path class="cls-1" d="M130.56,106a1.41,1.41,0,0,1-1.39,0L91.6,84.7l-8.25,4.76,46.52,26.86,46.52-26.86-8.25-4.76Z"/><path class="cls-1" d="M130.56,120.77a1.41,1.41,0,0,1-1.39,0L91.6,99.42l-8.25,4.76,46.52,26.86,46.52-26.86-8.25-4.76Z"/><path class="cls-1" d="M112.45,68.29c2.33-3.47,4.69-11.22-1.83-24.07L83.35,60l15.76,9.1S108.14,74.7,112.45,68.29Z"/><path class="cls-1" d="M118.5,65.54l43-24.69C170,35.91,165.88,11.66,149,0L102.25,27C118.22,40.41,120.72,56.06,118.5,65.54Z"/></g></g></svg>